<svg version="1.2" xmlns="http://www.w3.org/2000/svg" viewBox="0 0 40 42" width="40" height="42">
	<title>home-icon-svg</title>
	<style>
		.s0 { fill: #facd66 } 
	</style>
	<path id="Layer" class="s0" d="m14.2 38.4v-6.1c0-1.6 1.3-2.8 2.8-2.8h5.8c1.5 0 2.8 1.2 2.8 2.8v6.1c0 1.3 1.1 2.4 2.4 2.4h3.9c1.9 0 3.6-0.7 4.9-2 1.3-1.3 2-3 2-4.8v-17.3c0-1.5-0.6-2.9-1.8-3.8l-13.2-10.6c-2.3-1.8-5.6-1.7-7.9 0.2l-13 10.4c-1.2 0.9-1.9 2.3-1.9 3.8v17.3c0 3.8 3.1 6.8 6.9 6.8h3.8c0.6 0 1.3-0.2 1.7-0.7 0.5-0.4 0.8-1.1 0.8-1.7z"/>
</svg>