<svg version="1.2" xmlns="http://www.w3.org/2000/svg" viewBox="0 0 1024 1024" width="1024" height="1024">
	<title>upload-svgrepo-com-svg</title>
	<style>
		.s0 { fill: #4f524f } 
	</style>
	<path id="Layer" class="s0" d="m736.7 435.9c22.5 0.2 44.8 4.8 65.6 13.5 20.7 8.7 39.6 21.4 55.5 37.3 16 16 28.6 34.9 37.4 55.6 8.7 20.8 13.3 43.1 13.5 65.6 0.6 44.9-18.1 87.8-48.4 119.7-32.8 34.4-77 51.7-123.6 52.3-68.2 0.9-68.3 106.8 0 105.9 152.6-2 275.9-125.2 277.9-277.9 1.9-152.7-128.2-276-277.9-277.9-68.3-0.9-68.2 105 0 105.9zm-451.4 343.4c-22.6-0.2-44.8-4.8-65.6-13.5-20.8-8.8-39.7-21.4-55.6-37.4-15.9-15.9-28.6-34.8-37.3-55.6-8.8-20.7-13.4-43-13.6-65.5-0.6-44.9 18.1-87.9 48.5-119.7 32.7-34.4 77-51.8 123.6-52.4 68.2-0.9 68.2-106.7 0-105.8-152.7 1.9-276 125.2-277.9 277.9-2 152.6 128.2 275.9 277.9 277.8 68.2 0.9 68.2-104.9 0-105.8z"/>
	<path id="Layer" class="s0" d="m339.7 384.2c0.2-22.5 4.8-44.8 13.5-65.6 8.8-20.7 21.4-39.6 37.4-55.5 15.9-16 34.8-28.7 55.5-37.4 20.8-8.7 43.1-13.3 65.6-13.5 44.9-0.6 87.8 18.1 119.7 48.4 34.4 32.8 51.8 77 52.4 123.6 0.8 68.2 106.7 68.3 105.8 0-2-152.6-125.2-275.9-277.9-277.9-152.6-1.9-275.9 128.2-277.9 277.9-0.8 68.3 105 68.2 105.9 0z"/>
	<path id="Layer" class="s0" d="m545 473.1c16.6 16.5 16.6 43.3 0 59.9l-122.9 122.9c-16.5 16.5-43.3 16.5-59.8 0-16.6-16.6-16.6-43.4 0-59.9l122.8-122.9c16.6-16.6 43.4-16.6 59.9 0z"/>
	<path id="Layer" class="s0" d="m485.2 473.1c16.5-16.6 43.3-16.6 59.9 0l122.9 122.9c16.5 16.5 16.5 43.3 0 59.9-16.6 16.5-43.4 16.5-59.9 0l-122.9-122.9c-16.6-16.6-16.6-43.4 0-59.9z"/>
	<path id="Layer" class="s0" d="m514 634.1c24 0 43.4 19.4 43.4 43.4v178.1c0 23.9-19.4 43.4-43.4 43.4-23.9 0-43.4-19.5-43.4-43.4v-178.1c0-24 19.5-43.4 43.4-43.4z"/>
</svg>